PathFileType	4	(X/Y/Z)	Walk1.trc
DataRate	CameraRate	NumFrames	NumMarkers	Units	OrigDataRate	OrigDataStartFrame	OrigNumFrames
200.000000	200.000000	9	61	mm	200.000000	398	465
Frame#	Times		LFHD		RFHD		CLAV		STRN		LASI		RASI		RACR1		RUA1		RWRR		RWRU		RCAR		LACR1		LUA1		LFA1		LWRU		LCAR		RTH3		RTH2		RTB1		RTB4		LTH1		LTH3		LTH2		LTH4		LLFC		LMFC		LTB1		LTB3		LTB2		LTB4		LLMAL		LMMAL		LMT1		LMT5		LToe		LBHD		RBHD		RTB3		RFA1		RMFC		RMT5		RLFC		RToe		LElbowM		RTH4		RTB2		RLMAL		RMMAL		RMT1		LWRR		RElbow		LPSI		RPSI		RTH1		C7		LCAL		T10		RBack		RElbowM		RCAL		LElbow
			X1	Y1	Z1	X2	Y2	Z2	X3	Y3	Z3	X4	Y4	Z4	X5	Y5	Z5	X6	Y6	Z6	X7	Y7	Z7	X8	Y8	Z8	X9	Y9	Z9	X10	Y10	Z10	X11	Y11	Z11	X12	Y12	Z12	X13	Y13	Z13	X14	Y14	Z14	X15	Y15	Z15	X16	Y16	Z16	X17	Y17	Z17	X18	Y18	Z18	X19	Y19	Z19	X20	Y20	Z20	X21	Y21	Z21	X22	Y22	Z22	X23	Y23	Z23	X24	Y24	Z24	X25	Y25	Z25	X26	Y26	Z26	X27	Y27	Z27	X28	Y28	Z28	X29	Y29	Z29	X30	Y30	Z30	X31	Y31	Z31	X32	Y32	Z32	X33	Y33	Z33	X34	Y34	Z34	X35	Y35	Z35	X36	Y36	Z36	X37	Y37	Z37	X38	Y38	Z38	X39	Y39	Z39	X40	Y40	Z40	X41	Y41	Z41	X42	Y42	Z42	X43	Y43	Z43	X44	Y44	Z44	X45	Y45	Z45	X46	Y46	Z46	X47	Y47	Z47	X48	Y48	Z48	X49	Y49	Z49	X50	Y50	Z50	X51	Y51	Z51	X52	Y52	Z52	X53	Y53	Z53	X54	Y54	Z54	X55	Y55	Z55	X56	Y56	Z56	X57	Y57	Z57	X58	Y58	Z58	X59	Y59	Z59	X60	Y60	Z60	X61	Y61	Z61

398	1.99	1220.5	1544.3	-73.724	1223.7	1549.6	25.565	1148.1	1293.8	-11.457	1171	1161.7	-7.2474	1143.1	893.89	-120.89	1124.3	896.35	127.68	1072.5	1336.9	152.6	1073.4	1167.9	207.64	1193.4	782.66	255.13	1244.8	811.91	221.63	1256.6	746.63	271	1064.3	1344.9	-162.61	1010.1	1178.1	-218.79	910.9	905.35	-250.21	920.45	778.19	-244.13	858.17	728.29	-263.58	1035.8	555.28	159.36	1098.3	637.96	151.16	936.26	312.55	107.69	864.31	264.31	98.251	1132	730.18	-188.69	1179.3	570.73	-142.47	1207	672.15	-147.03	1154.7	649.16	-167.41	1216.5	439.8	-110.3	1197.7	434.21	22.038	1252.2	345.73	-36.495	1235.8	176.58	-18.844	1236.1	255.47	-89.294	1241.3	260.17	-28.755	1191	60.896	-60.158	1191	85.438	18.208	1320.1	29.944	17.332	1293.3	24.074	-66.702	1376.9	27.801	-5.3567	1065	1517.9	-91.07	1073.5	1530.5	54.037	792.67	218.64	86.305	1153.4	894.67	259.54	973.28	401.74	12.177	666.89	80.458	93.075	1015.6	409.58	135.09	722.49	26.614	46.576	942.53	1035.3	-225.65	1046.1	637.89	175.04	834.35	303.28	135.75	670.9	195.47	90.175	702.29	192.86	13.824	701.13	66.112	14.029	855.77	802.5	-232.36	1069.4	1001.2	243.24	962.11	946.03	-58.788	957.13	936.17	41.438	1057.6	722.18	192.04	1037.2	1399.5	-14.973	1128.7	35.388	-24.873	960.69	1186.5	-5.3589	956.42	1274.8	62.876	1040.7	992.99	168.92	633.9	235.06	51.319	935.79	1021.2	-151.41
399	1.995	1228.2	1544.9	-73.797	1231.4	1550.3	25.484	1155.6	1294.5	-11.228	1178.4	1162.3	-7.0728	1150.5	894.99	-121.14	1131.7	896.87	127.49	1079.9	1337.7	152.63	1080.8	1168.6	207.53	1197	781.68	255.8	1248.9	810	222.23	1259.7	744.79	271.89	1072.4	1345.7	-162.54	1019.5	1178.4	-218.9	922.74	904.89	-251.36	933.59	777.88	-245.18	872.13	727.57	-265.71	1048.6	554.82	159.54	1109.7	638.64	151.03	950.47	312.4	107.61	877.66	265.34	98.221	1138.8	730.81	-188.91	1184.6	570.93	-142.75	1213.2	671.99	-147.41	1160.7	649.56	-167.7	1220.6	439.6	-110.62	1202	434.24	21.762	1255.5	345.02	-36.754	1237.1	176.07	-18.945	1238.3	254.92	-89.455	1243.6	259.6	-28.902	1190.8	60.909	-60.124	1191.2	85.515	18.22	1320	29.771	17.34	1293.3	24.045	-66.943	1377	27.32	-5.394	1072.7	1518.6	-91.058	1081.2	1531.3	54.032	805.18	220.92	86.303	1158.7	894.33	259.78	988.64	399.85	12.87	676.88	85.165	94.142	1030.9	408.77	135.7	731.16	28.389	49.092	952.9	1035.3	-226.59	1057.5	637.59	174.92	848.52	304.57	136.14	683.11	199.73	90.657	714.06	197.15	14.127	711.43	69.348	15.814	868.52	801.49	-234.03	1076.2	1001.9	242.98	969.52	946.71	-58.78	964.5	936.66	41.327	1067.6	722.2	191.73	1044.7	1400.3	-14.947	1128.7	35.444	-25.006	968.09	1187.4	-5.4491	963.8	1275.7	62.84	1048	993.87	168.44	646.51	240.24	51.384	945.73	1021.1	-152.37
400	2	1235.8	1545.5	-73.845	1239	1551.1	25.428	1163.1	1295.3	-10.97	1185.8	1163.1	-6.851	1158	896.1	-121.36	1139	897.46	127.32	1087.2	1338.5	152.71	1088.1	1169.4	207.45	1200.6	780.77	256.48	1252.9	808.13	222.81	1262.7	743	272.75	1080.3	1346.6	-162.44	1028.8	1178.8	-218.98	934.72	904.44	-252.5	946.93	777.61	-246.23	886.35	726.87	-267.85	1061.4	554.59	159.75	1121.1	639.51	150.95	964.87	312.44	107.48	891.28	266.47	98.14	1145.5	731.44	-189.1	1189.6	571.1	-143.02	1219.3	671.79	-147.75	1166.6	649.96	-167.97	1224.2	439.38	-110.95	1205.9	434.22	21.472	1258.6	344.32	-37.069	1238.2	175.58	-19.091	1240.2	254.37	-89.652	1245.7	259.04	-29.092	1190.7	60.929	-60.09	1191.4	85.589	18.235	1320	29.678	17.33	1293.3	24.048	-67.157	1377.1	26.959	-5.476	1080.3	1519.3	-91.028	1088.9	1532.2	54.045	818.05	223.21	86.246	1163.9	894.02	260.04	1004	398.26	13.547	687.84	89.722	95.213	1046.2	408.23	136.32	741.06	30.397	51.543	963.33	1035.3	-227.52	1068.8	637.48	174.82	862.91	305.89	136.48	695.75	203.82	91.083	726.28	201.34	14.38	722.67	72.555	17.545	881.47	800.47	-235.68	1082.9	1002.6	242.75	976.9	947.44	-58.822	971.82	937.25	41.199	1077.5	722.4	191.48	1052.2	1401.2	-14.904	1128.7	35.488	-25.121	975.44	1188.2	-5.5473	971.1	1276.6	62.784	1055.1	994.75	168	659.38	244.98	51.331	955.75	1021	-153.32
401	2.005	1243.5	1546.1	-73.866	1246.7	1551.8	25.399	1170.5	1296.1	-10.688	1193.1	1163.8	-6.5826	1165.4	897.24	-121.54	1146.3	898.1	127.18	1094.3	1339.3	152.81	1095.3	1170.1	207.4	1204	779.93	257.19	1256.8	806.32	223.39	1265.5	741.26	273.58	1088.2	1347.5	-162.32	1038.1	1179.2	-219.04	946.84	904	-253.63	960.45	777.38	-247.29	900.81	726.21	-269.99	1074.1	554.59	159.98	1132.4	640.58	150.94	979.43	312.68	107.32	905.16	267.72	98.028	1152	732.07	-189.25	1194.4	571.27	-143.27	1225.2	671.57	-148.05	1172.3	650.35	-168.22	1227.6	439.13	-111.28	1209.4	434.17	21.174	1261.4	343.64	-37.428	1239.4	175.11	-19.275	1242	253.85	-89.878	1247.7	258.51	-29.319	1190.4	60.955	-60.057	1191.7	85.656	18.249	1319.9	29.642	17.312	1293.2	24.072	-67.342	1377.2	26.688	-5.5929	1088	1520.1	-90.98	1096.6	1533.2	54.075	831.28	225.49	86.154	1169	893.75	260.32	1019.3	397	14.199	699.76	94.066	96.278	1061.4	407.99	136.93	752.2	32.595	53.875	973.83	1035.3	-228.42	1080.1	637.55	174.76	877.5	307.27	136.78	708.79	207.7	91.456	738.92	205.37	14.592	734.85	75.698	19.196	894.62	799.43	-237.32	1089.6	1003.3	242.55	984.25	948.22	-58.907	979.12	937.94	41.059	1087.4	722.77	191.29	1059.7	1402.1	-14.844	1128.6	35.526	-25.218	982.76	1189.1	-5.6536	978.34	1277.5	62.707	1062.2	995.64	167.6	672.47	249.26	51.192	965.84	1020.8	-154.28
402	2.01	1251.1	1546.7	-73.857	1254.4	1552.5	25.399	1177.8	1297	-10.387	1200.3	1164.7	-6.2683	1172.8	898.4	-121.69	1153.6	898.8	127.06	1101.4	1340.1	152.94	1102.4	1170.9	207.39	1207.3	779.16	257.91	1260.5	804.56	223.97	1268.2	739.59	274.38	1096	1348.4	-162.17	1047.4	1179.6	-219.07	959.1	903.59	-254.74	974.14	777.2	-248.35	915.51	725.58	-272.12	1086.6	554.81	160.24	1143.7	641.83	150.99	994.16	313.13	107.16	919.29	269.05	97.907	1158.5	732.71	-189.36	1199.1	571.44	-143.51	1231	671.33	-148.31	1177.8	650.75	-168.44	1230.8	438.89	-111.61	1212.7	434.09	20.872	1264.1	342.98	-37.82	1240.4	174.67	-19.491	1243.6	253.33	-90.126	1249.6	257.99	-29.576	1190.2	60.984	-60.026	1192	85.713	18.26	1319.9	29.647	17.289	1293.2	24.108	-67.497	1377.4	26.486	-5.736	1095.5	1521	-90.917	1104.2	1534.2	54.12	844.84	227.73	86.049	1174.1	893.52	260.63	1034.5	396.05	14.816	712.63	98.14	97.326	1076.4	408.02	137.53	764.55	34.931	56.049	984.38	1035.3	-229.29	1091.2	637.8	174.73	892.26	308.7	137.04	722.22	211.35	91.78	752	209.18	14.772	747.91	78.738	20.747	907.96	798.4	-238.94	1096.2	1004.1	242.37	991.57	949.05	-59.024	986.39	938.72	40.914	1097.2	723.31	191.16	1067	1403	-14.766	1128.6	35.565	-25.299	990.04	1190.1	-5.7675	985.52	1278.4	62.608	1069.2	996.52	167.24	685.79	253.04	50.997	976	1020.7	-155.23
403	2.015	1258.7	1547.3	-73.816	1262	1553.3	25.432	1185	1298	-10.074	1207.6	1165.6	-5.9097	1180.2	899.58	-121.81	1160.8	899.57	126.97	1108.3	1341	153.11	1109.4	1171.7	207.41	1210.6	778.47	258.66	1264.1	802.88	224.54	1270.9	737.99	275.16	1103.8	1349.4	-162.01	1056.7	1180.1	-219.09	971.48	903.21	-255.84	988	777.07	-249.41	930.44	725.01	-274.24	1099.1	555.26	160.52	1154.8	643.26	151.1	1009	313.78	107	933.65	270.47	97.793	1164.8	733.35	-189.43	1203.5	571.6	-143.72	1236.6	671.08	-148.51	1183.2	651.15	-168.63	1233.7	438.66	-111.93	1215.8	434	20.568	1266.5	342.34	-38.231	1241.4	174.24	-19.727	1245	252.84	-90.388	1251.3	257.49	-29.855	1190	61.018	-60	1192.3	85.761	18.268	1319.9	29.677	17.267	1293.1	24.152	-67.626	1377.5	26.334	-5.898	1103.1	1522	-90.839	1111.8	1535.3	54.182	858.73	229.92	85.949	1179	893.35	260.96	1049.6	395.42	15.39	726.39	101.9	98.348	1091.2	408.32	138.12	778.06	37.352	58.044	994.99	1035.3	-230.15	1102.2	638.25	174.74	907.17	310.18	137.25	736.02	214.74	92.056	765.49	212.72	14.926	761.83	81.638	22.184	921.49	797.37	-240.54	1102.7	1004.9	242.21	998.88	949.91	-59.163	993.63	939.6	40.768	1106.9	724.02	191.09	1074.3	1404	-14.669	1128.6	35.611	-25.367	997.29	1191.1	-5.8882	992.64	1279.4	62.491	1076.1	997.4	166.92	699.31	256.31	50.773	986.24	1020.5	-156.17
404	2.02	1266.3	1547.9	-73.744	1269.6	1554	25.497	1192.2	1298.9	-9.7526	1214.8	1166.5	-5.5094	1187.6	900.78	-121.89	1167.9	900.4	126.89	1115.2	1341.9	153.29	1116.2	1172.5	207.47	1213.7	777.87	259.42	1267.7	801.28	225.12	1273.4	736.47	275.91	1111.5	1350.4	-161.82	1066	1180.6	-219.09	983.97	902.87	-256.93	1002	777.02	-250.45	945.58	724.5	-276.32	1111.4	555.93	160.82	1165.9	644.86	151.29	1024	314.61	106.86	948.23	271.94	97.703	1171	733.99	-189.46	1207.9	571.77	-143.92	1242.1	670.83	-148.65	1188.5	651.56	-168.79	1236.5	438.43	-112.25	1218.6	433.89	20.259	1268.8	341.72	-38.649	1242.3	173.84	-19.976	1246.3	252.37	-90.657	1252.9	257.01	-30.144	1189.8	61.057	-59.979	1192.7	85.803	18.269	1319.8	29.721	17.248	1293.1	24.198	-67.727	1377.6	26.215	-6.0727	1110.7	1523	-90.748	1119.4	1536.5	54.258	872.93	232.03	85.869	1183.9	893.22	261.31	1064.7	395.09	15.912	740.99	105.29	99.333	1105.9	408.89	138.69	792.67	39.808	59.851	1005.6	1035.4	-230.99	1113.1	638.89	174.78	922.21	311.7	137.42	750.16	217.85	92.29	779.38	215.95	15.063	776.55	84.364	23.502	935.2	796.36	-242.11	1109.1	1005.6	242.08	1006.2	950.81	-59.314	1000.9	940.57	40.628	1116.5	724.88	191.08	1081.6	1405	-14.553	1128.6	35.669	-25.423	1004.5	1192.1	-6.0149	999.72	1280.3	62.357	1082.9	998.28	166.64	713.04	259.06	50.542	996.55	1020.3	-157.09
405	2.025	1273.9	1548.6	-73.638	1277.2	1554.7	25.596	1199.4	1300	-9.4292	1221.9	1167.5	-5.0707	1195	901.99	-121.93	1175.1	901.29	126.85	1121.9	1342.8	153.5	1123	1173.4	207.55	1216.8	777.35	260.19	1271.1	799.76	225.7	1275.9	735.04	276.66	1119	1351.4	-161.62	1075.2	1181.2	-219.07	996.57	902.58	-257.98	1016.2	777.03	-251.49	960.94	724.05	-278.38	1123.5	556.81	161.14	1176.8	646.64	151.54	1039.2	315.63	106.75	963.04	273.47	97.646	1177.2	734.63	-189.45	1212.1	571.94	-144.09	1247.5	670.59	-148.74	1193.7	651.97	-168.92	1239.1	438.23	-112.57	1221.2	433.77	19.947	1271	341.14	-39.058	1243.2	173.46	-20.224	1247.5	251.92	-90.922	1254.4	256.56	-30.433	1189.5	61.103	-59.965	1193	85.842	18.263	1319.8	29.771	17.234	1293.1	24.243	-67.805	1377.8	26.117	-6.2546	1118.2	1524	-90.644	1126.9	1537.7	54.349	887.43	234.05	85.821	1188.6	893.14	261.67	1079.8	395.06	16.375	756.36	108.3	100.28	1120.4	409.69	139.23	808.3	42.247	61.472	1016.3	1035.4	-231.8	1124	639.72	174.86	937.36	313.26	137.55	764.62	220.64	92.489	793.65	218.82	15.188	792.02	86.883	24.703	949.08	795.38	-243.64	1115.5	1006.4	241.97	1013.4	951.74	-59.467	1008.1	941.61	40.496	1126	725.89	191.12	1088.8	1406.1	-14.419	1128.6	35.74	-25.47	1011.7	1193.1	-6.1472	1006.8	1281.3	62.207	1089.6	999.16	166.4	726.98	261.27	50.318	1006.9	1020.1	-157.98
406	2.03	1281.4	1549.2	-73.501	1284.7	1555.5	25.727	1206.5	1301	-9.1089	1229.1	1168.6	-4.5981	1202.3	903.2	-121.94	1182.2	902.24	126.82	1128.6	1343.7	153.73	1129.6	1174.2	207.67	1219.8	776.92	260.97	1274.4	798.34	226.28	1278.2	733.7	277.39	1126.6	1352.5	-161.41	1084.4	1181.8	-219.04	1009.3	902.34	-259.02	1030.5	777.14	-252.51	976.5	723.68	-280.38	1135.6	557.87	161.46	1187.7	648.56	151.86	1054.4	316.8	106.67	978.04	275.02	97.629	1183.3	735.27	-189.39	1216.2	572.12	-144.24	1252.9	670.35	-148.77	1198.8	652.38	-169.01	1241.6	438.06	-112.89	1223.7	433.65	19.629	1273	340.59	-39.445	1244	173.11	-20.463	1248.6	251.51	-91.177	1255.8	256.13	-30.712	1189.3	61.158	-59.96	1193.3	85.884	18.249	1319.8	29.82	17.227	1293	24.284	-67.86	1377.9	26.033	-6.4392	1125.7	1525.2	-90.53	1134.4	1538.9	54.453	902.22	235.93	85.813	1193.3	893.13	262.05	1094.8	395.31	16.777	772.45	110.9	101.18	1134.8	410.73	139.74	824.87	44.626	62.916	1027	1035.5	-232.6	1134.7	640.73	174.98	952.6	314.83	137.65	779.38	223.09	92.66	808.28	221.3	15.308	808.2	89.166	25.792	963.13	794.45	-245.13	1121.8	1007.2	241.88	1020.7	952.69	-59.613	1015.3	942.71	40.378	1135.5	727.03	191.21	1095.9	1407.1	-14.265	1128.6	35.828	-25.51	1018.9	1194.1	-6.2849	1013.8	1282.3	62.046	1096.3	1000.1	166.19	741.11	262.93	50.11	1017.4	1020	-158.86
